<svg xmlns="http://www.w3.org/2000/svg" viewBox="0 0 192 192">
  <!-- 背景 -->
  <rect width="192" height="192" fill="#2c3e50" rx="24"/>
  
  <!-- 书籍主体 -->
  <rect x="24" y="32" width="144" height="128" fill="#ecf0f1" rx="8"/>
  
  <!-- 书页线条 -->
  <line x1="36" y1="48" x2="120" y2="48" stroke="#bdc3c7" stroke-width="3"/>
  <line x1="36" y1="60" x2="120" y2="60" stroke="#bdc3c7" stroke-width="3"/>
  <line x1="36" y1="72" x2="108" y2="72" stroke="#bdc3c7" stroke-width="3"/>
  <line x1="36" y1="84" x2="96" y2="84" stroke="#bdc3c7" stroke-width="3"/>
  <line x1="36" y1="96" x2="84" y2="96" stroke="#bdc3c7" stroke-width="3"/>
  
  <!-- 书签 -->
  <rect x="140" y="20" width="8" height="60" fill="#e74c3c" rx="4"/>
  <polygon points="140,20 148,20 144,28" fill="#c0392b"/>
  
  <!-- 装饰点 -->
  <circle cx="156" cy="40" r="3" fill="#3498db"/>
  <circle cx="156" cy="52" r="3" fill="#3498db"/>
  <circle cx="156" cy="64" r="3" fill="#3498db"/>
  
  <!-- 书名标识（使用图形而不是文本） -->
  <rect x="80" y="120" width="32" height="4" fill="#2c3e50" rx="2"/>
  <rect x="84" y="128" width="24" height="4" fill="#2c3e50" rx="2"/>
  <rect x="88" y="136" width="16" height="4" fill="#2c3e50" rx="2"/>
</svg>
